<svg xmlns="http://www.w3.org/2000/svg" height="100" width="100"><defs><filter height="1" y="0" width="1" x="0" id="a" style="color-interpolation-filters:sRGB"><feGaussianBlur stdDeviation=".002"/></filter></defs><g transform="translate(0 -284.292)"><path d="m87.504 343.307-33.428-13.703-41.605 15.116v1.987a24.952 24.952 0 0 0 25.006 25.007h25.02a24.953 24.953 0 0 0 25.007-25.007z" style="fill:#b3b3b3;stroke-width:.33414534"/><path d="M37.477 296.775a24.952 24.952 0 0 0-25.006 25.007v22.938l41.605-15.116 33.428 13.703v-21.525a24.952 24.952 0 0 0-25.007-25.007z" style="fill:#1a1a1a;stroke-width:.33414534"/><path d="M68.882 344.836 50.103 337.2l-18.859 7.575a9173.618 9173.618 0 0 1-18.89 7.576c-.016 0-.03-3.298-.03-7.328v-7.328l.872-.343c.48-.19 8.975-3.67 18.879-7.735l18.006-7.392 18.694 7.792c10.282 4.285 18.729 7.793 18.77 7.794.04 0 .087-.123.103-.275.016-.152.033 3.155.037 7.348.004 4.194 0 7.617-.009 7.607-.009-.01-8.466-3.455-18.794-7.655z" style="fill:#fabd00;fill-opacity:1;stroke-width:.10012668"/><rect ry="3.126" rx="3.126" y="300.1" x="25.476" height="4.376" width="46.592" style="fill:#fabd00;fill-opacity:1;stroke-width:.26944691"/><rect ry="3.126" rx="3.126" y="304.939" x="18.09" height="4.376" width="17.046" style="fill:#ad1519;fill-opacity:1;stroke-width:.16297723"/><rect ry="3.126" rx="3.126" y="325.323" x="17.992" height="4.376" width="11.49" style="fill:#ad1519;fill-opacity:1;stroke-width:.1338076"/><rect ry="3.126" rx="3.126" y="310.237" x="23.551" height="4.376" width="21.15" style="fill:#ad1519;fill-opacity:1;stroke-width:.181538"/><rect ry="3.126" rx="3.126" y="310.174" x="46.089" height="4.376" width="38.448" style="fill:#c8b7b7;stroke-width:.24476752"/><rect ry="3.126" rx="3.126" y="315.299" x="23.298" height="4.376" width="62.186" style="fill:#c8b7b7;stroke-width:.31128865"/><rect ry="6.252" rx="3.126" y="320.41" x="23.649" height="4.376" width="16.288" style="fill:#ad1519;fill-opacity:1;stroke-width:.15931438"/><rect ry="3.126" rx="3.126" y="320.349" x="60.262" height="4.376" width="26.074" style="fill:#c8b7b7;stroke-width:.20156735"/><rect ry="3.126" rx="3.126" y="305.033" x="35.896" height="4.376" width="11.49" style="fill:#fabd00;fill-opacity:1;stroke-width:.1338076"/><rect ry="1.875" rx="3.126" y="350.53" x="28.001" height="12.503" width="4.376" style="fill:#4d4d4d;stroke-width:.18938503"/><rect transform="rotate(-89.235)" ry="1.875" rx="3.126" y="28.527" x="-358.284" height="12.503" width="4.376" style="fill:#4d4d4d;stroke-width:.18938504"/><circle r="3.126" cy="357.599" cx="62.442" style="fill:green;stroke-width:.33081684"/><circle r="3.126" cy="357.776" cx="75.488" style="fill:red;stroke-width:.33081684"/><circle r="3.126" cy="363.711" cx="68.803" style="fill:#ff0;stroke-width:.33081684"/><path d="M67.875 354.3c-1.927-.71-2.603-2.834-1.46-4.586.525-.805 1.41-1.233 2.549-1.233a2.886 2.886 0 0 1 2.9 2.904c0 2.157-2.026 3.638-3.99 2.915z" style="fill:#00f;stroke-width:.17856704"/><rect transform="matrix(-.71215 -.70202 .81741 -.57606 0 0)" ry="1.875" rx="3.126" y="-226.761" x="-333.218" height="5.676" width="2.083" style="fill:#4d4d4d;stroke-width:.08804263"/><rect transform="matrix(-.71215 -.70202 .81741 -.57606 0 0)" ry="1.875" rx="3.126" y="-232.425" x="-328.57" height="5.676" width="2.083" style="fill:#4d4d4d;stroke-width:.08804263"/></g><g style="display:inline"><circle r="1.5" cy="204.018" cx="-150.435" style="fill:#000;stroke:none" transform="translate(0 -284.292)"/></g><g style="filter:url(#a)"><path d="M24.962 284.2A24.953 24.953 0 0 0-.045 309.207v50.163a24.952 24.952 0 0 0 25.007 25.007h50.066a24.952 24.952 0 0 0 25.006-25.007v-50.163A24.952 24.952 0 0 0 75.028 284.2zm12.515 12.575h25.02a24.952 24.952 0 0 1 25.007 25.007V346.707a24.953 24.953 0 0 1-25.007 25.007h-25.02a24.952 24.952 0 0 1-25.006-25.007V321.782a24.952 24.952 0 0 1 25.006-25.007z" style="fill:#ad1519;fill-opacity:1;stroke-width:.42795792" transform="translate(0 -284.292)"/></g></svg>