<?xml version="1.0" encoding="UTF-8" standalone="no"?>
<svg
   xmlns:dc="http://purl.org/dc/elements/1.1/"
   xmlns:cc="http://creativecommons.org/ns#"
   xmlns:rdf="http://www.w3.org/1999/02/22-rdf-syntax-ns#"
   xmlns:svg="http://www.w3.org/2000/svg"
   xmlns="http://www.w3.org/2000/svg"
   id="svg46"
   version="1.1"
   viewBox="0 0 100 100">
  <metadata
     id="metadata52">
    <rdf:RDF>
      <cc:Work
         rdf:about="">
        <dc:format>image/svg+xml</dc:format>
        <dc:type
           rdf:resource="http://purl.org/dc/dcmitype/StillImage" />
        <dc:title></dc:title>
      </cc:Work>
    </rdf:RDF>
  </metadata>
  <defs
     id="defs50" />
  <g
     id="g44"
     transform="matrix(1.2518236,0,0,1.2518236,-0.02526652,-271.58129)">
    <rect
       id="rect2"
       ry="20"
       rx="20"
       y="216.985"
       x="-0.012"
       height="80.120003"
       width="80.042"
       style="fill:#0000ff;stroke-width:0.34227473" />
    <path
       id="path4"
       transform="scale(0.26458)"
       d="M 264.6,998.77 163.553,957.348 37.787,1003.039 v 6.008 c 0,41.877 33.713,75.592 75.59,75.592 h 75.63 c 41.878,0 75.593,-33.715 75.593,-75.592 z"
       style="fill:#b3b3b3;stroke-width:1.01006138" />
    <path
       id="path6"
       transform="scale(0.26458)"
       d="m 113.377,858.111 c -41.877,0 -75.59,33.713 -75.59,75.59 v 69.338 L 163.553,957.348 264.6,998.77 V 933.7 c 0,-41.877 -33.715,-75.59 -75.592,-75.59 z"
       style="fill:#1a1a1a;stroke-width:1.01006138" />
    <path
       id="path8"
       d="m 55.115,265.48 -15.02,-6.107 -15.083,6.059 a 7333.383,7333.383 0 0 1 -15.107,6.059 c -0.014,0 -0.025,-2.638 -0.025,-5.86 v -5.862 l 0.698,-0.274 c 0.384,-0.152 7.178,-2.935 15.099,-6.187 l 14.4,-5.912 14.952,6.232 c 8.224,3.428 14.98,6.233 15.012,6.234 0.033,0 0.07,-0.098 0.083,-0.22 0.013,-0.122 0.026,2.523 0.029,5.877 0.003,3.354 0,6.091 -0.007,6.083 -0.007,-0.008 -6.771,-2.763 -15.032,-6.122 z"
       style="fill:#0000ff;stroke-width:0.08008011" />
    <rect
       id="rect10"
       ry="2.5"
       rx="2.5"
       y="229.701"
       x="20.399"
       height="3.5"
       width="37.264"
       style="fill:#008000;stroke-width:0.2155004" />
    <rect
       id="rect12"
       ry="2.5"
       rx="2.5"
       y="233.571"
       x="14.491"
       height="3.5"
       width="13.633"
       style="fill:#0055d4;stroke-width:0.13034724" />
    <rect
       id="rect14"
       ry="2.5"
       rx="2.5"
       y="249.87399"
       x="14.414"
       height="3.5"
       width="9.1899996"
       style="fill:#0055d4;stroke-width:0.1070177" />
    <rect
       id="rect16"
       ry="2.5"
       rx="2.5"
       y="237.808"
       x="18.858999"
       height="3.5"
       width="16.915001"
       style="fill:#0055d4;stroke-width:0.14519191" />
    <rect
       id="rect18"
       ry="2.5"
       rx="2.5"
       y="237.758"
       x="36.884998"
       height="3.5"
       width="30.75"
       style="fill:#c8b7b7;stroke-width:0.19576211" />
    <rect
       id="rect20"
       ry="2.5"
       rx="2.5"
       y="241.85699"
       x="18.657"
       height="3.5"
       width="49.736"
       style="fill:#c8b7b7;stroke-width:0.24896494" />
    <rect
       id="rect22"
       ry="5"
       rx="2.5"
       y="245.94501"
       x="18.938"
       height="3.5"
       width="13.027"
       style="fill:#0055d4;stroke-width:0.12741773" />
    <rect
       id="rect24"
       ry="2.5"
       rx="2.5"
       y="245.896"
       x="48.221001"
       height="3.5"
       width="20.854"
       style="fill:#c8b7b7;stroke-width:0.16121115" />
    <rect
       id="rect26"
       ry="2.5"
       rx="2.5"
       y="233.647"
       x="28.733"
       height="3.5"
       width="9.1899996"
       style="fill:#00ffff;stroke-width:0.10701771" />
    <rect
       id="rect28"
       ry="1.5"
       rx="2.5"
       y="270.034"
       x="22.419001"
       height="10"
       width="3.5"
       style="fill:#4d4d4d;stroke-width:0.15146786" />
    <rect
       id="rect30"
       transform="rotate(-89.235)"
       ry="1.5"
       rx="2.5"
       y="22.701"
       x="-276.23599"
       height="10"
       width="3.5"
       style="fill:#4d4d4d;stroke-width:0.15146787" />
    <circle
       id="circle32"
       r="2.5"
       cy="275.68799"
       cx="49.964001"
       style="fill:#008000;stroke-width:0.26458332" />
    <circle
       id="circle34"
       r="2.5"
       cy="275.82901"
       cx="60.397999"
       style="fill:#ff0000;stroke-width:0.26458332" />
    <circle
       id="circle36"
       r="2.5"
       cy="280.57599"
       cx="55.051998"
       style="fill:#ffff00;stroke-width:0.26458332" />
    <path
       id="path38"
       d="m 54.31,273.05 c -1.542,-0.568 -2.083,-2.267 -1.169,-3.668 0.42,-0.644 1.128,-0.987 2.039,-0.987 1.292,0 2.32,1.03 2.32,2.323 0,1.725 -1.621,2.91 -3.19,2.331 z"
       style="fill:#0000ff;stroke-width:0.14281577" />
    <rect
       id="rect40"
       transform="matrix(-0.71215,-0.70202,0.81741,-0.57606,0,0)"
       ry="1.5"
       rx="2.5"
       y="-173.879"
       x="-257.94901"
       height="4.54"
       width="1.666"
       style="fill:#4d4d4d;stroke-width:0.07041544" />
    <rect
       id="rect42"
       transform="matrix(-0.71215,-0.70202,0.81741,-0.57606,0,0)"
       ry="1.5"
       rx="2.5"
       y="-178.409"
       x="-254.23199"
       height="4.54"
       width="1.666"
       style="fill:#4d4d4d;stroke-width:0.07041544" />
  </g>
</svg>
